<svg id="Capa_1" data-name="Capa 1" xmlns="http://www.w3.org/2000/svg" viewBox="0 0 192 159"><defs><style>.cls-1{fill:#1d1d1b;}.cls-2{fill:#be1622;}</style></defs><title>1gaia</title><path class="cls-1" d="M267.27,230.52h-.12l-6.78,3.66-1-4,8.52-4.56h4.5v39h-5.1Z" transform="translate(-174.5 -203.5)"/><path class="cls-1" d="M248.43,340.28a3.63,3.63,0,0,0,.66,1.26,1.1,1.1,0,0,1,.36.69.73.73,0,0,1-.45.66,2.07,2.07,0,0,1-1,.24,3.23,3.23,0,0,1-2.19-.75,2.73,2.73,0,0,1-.87-2.19q0-7.56.12-12.36l.12-5.34q.18-5.58.18-8.34-6,13.38-11.76,20.19t-12.9,6.81q-5.28,0-7.74-3.24t-2.46-10.08a44.2,44.2,0,0,1,14.79-32.28q6.51-5.52,13.17-5.52a3,3,0,0,1,2.85,1.32,5.51,5.51,0,0,1,.75,2.76,8.29,8.29,0,0,1-.27,2.37q-.27.87-.63.87t-.45-.54a16.08,16.08,0,0,1-.33-1.92,4.77,4.77,0,0,0-.6-1.95,1.67,1.67,0,0,0-1.5-.63q-5.52,0-11.37,5.4a43.34,43.34,0,0,0-9.72,13.65,37.78,37.78,0,0,0-3.87,16.11,15.32,15.32,0,0,0,1.65,7.77q1.65,2.79,6,2.79a12.7,12.7,0,0,0,8.7-3.66,38.27,38.27,0,0,0,7.17-9q3.15-5.37,7.47-14.25a78.74,78.74,0,0,0-8.58,2.4l-2.34.78-2.22.72q-2.22.78-3.6,1.17a8.73,8.73,0,0,1-2.28.39,1,1,0,0,1-.93-.57,2.41,2.41,0,0,1-.33-1.23q0-.84,2.46-1.71a66.8,66.8,0,0,1,7.38-2q1.92-.42,5.52-1.44.6-.18,3.63-1a20.23,20.23,0,0,1,4.23-.78h.69a.84.84,0,0,1,.81.45,3.13,3.13,0,0,1,.24,1.41q0,.54-.72,1l-.06,4.62Q248,320,248,325.55v11.82A12.1,12.1,0,0,0,248.43,340.28Z" transform="translate(-174.5 -203.5)"/><path class="cls-1" d="M280.35,328.76a1.25,1.25,0,0,1,.42.75,3.15,3.15,0,0,1-.6,1.65q-.6.93-1.2.93-1,0-1.56-1.26a7.42,7.42,0,0,1-.54-2.94q0-1.44.18-8.64l.06-2.28a2.44,2.44,0,0,0-.72-2q-2.7,4.56-5,7.92a31.89,31.89,0,0,1-5.94,6.33,11.73,11.73,0,0,1-7.56,3,3.74,3.74,0,0,1-3-1.2,4.57,4.57,0,0,1-1-3.12q0-2.4,2.16-6.57a54.35,54.35,0,0,1,5.52-8.46,44.92,44.92,0,0,1,6.72-7.05,19.77,19.77,0,0,1,3.54-2.43,5.56,5.56,0,0,1,2.34-.63,3.9,3.9,0,0,1,2,.6,5.35,5.35,0,0,1,1.74,1.68,4.33,4.33,0,0,1,.72,2.46,6.72,6.72,0,0,1-1,3.54l1-.3q.66,0,.78,1.62.06,1,.15,3.9t.15,4.86q.06,2,.12,3.84t.12,2.94A1.66,1.66,0,0,0,280.35,328.76Zm-15.42-2.19a28.27,28.27,0,0,0,5.37-5.73q2.37-3.33,5.25-8.19a10.4,10.4,0,0,0,.72-3.9,3.38,3.38,0,0,0-.75-2.19,2.45,2.45,0,0,0-2-.93q-1.5,0-3.84,2a41.93,41.93,0,0,0-5.7,6.09,50.9,50.9,0,0,0-5,7.53,13.74,13.74,0,0,0-2,5.88q0,1.8,1.68,1.8A9.88,9.88,0,0,0,264.93,326.57Z" transform="translate(-174.5 -203.5)"/><path class="cls-1" d="M288.75,295.07a3.33,3.33,0,0,1-2.07-.84q-1.05-.84-1.05-1.38a1.74,1.74,0,0,1,.63-1.26,1.88,1.88,0,0,1,1.29-.6,3.47,3.47,0,0,1,1.5,1,13.13,13.13,0,0,1,1.08,1.26,2.94,2.94,0,0,1,.6,1Q290.73,295.07,288.75,295.07Zm3,37.77a1.79,1.79,0,0,1-1.17.27q-.84-.06-1.23-2.7t-.81-10q-.24-4.86-.42-9.51t-.24-7.17a1.87,1.87,0,0,1,.21-1,.89.89,0,0,1,.81-.33,1.62,1.62,0,0,1,1.74,1.14,17.26,17.26,0,0,1,.36,4.38l-.06,7.08q0,6.06.36,9.72,0,.18.54,3.84a25.77,25.77,0,0,1,.42,3.36A1,1,0,0,1,291.72,332.84Z" transform="translate(-174.5 -203.5)"/><path class="cls-1" d="M325.17,328.76a1.25,1.25,0,0,1,.42.75,3.15,3.15,0,0,1-.6,1.65q-.6.93-1.2.93-1,0-1.56-1.26a7.42,7.42,0,0,1-.54-2.94q0-1.44.18-8.64l.06-2.28a2.44,2.44,0,0,0-.72-2q-2.7,4.56-5,7.92a31.89,31.89,0,0,1-5.94,6.33,11.73,11.73,0,0,1-7.56,3,3.74,3.74,0,0,1-3-1.2,4.57,4.57,0,0,1-1.05-3.12q0-2.4,2.16-6.57a54.35,54.35,0,0,1,5.52-8.46,44.92,44.92,0,0,1,6.72-7.05,19.77,19.77,0,0,1,3.54-2.43,5.56,5.56,0,0,1,2.34-.63,3.9,3.9,0,0,1,2,.6,5.35,5.35,0,0,1,1.74,1.68,4.33,4.33,0,0,1,.72,2.46,6.72,6.72,0,0,1-1,3.54l1-.3q.66,0,.78,1.62.06,1,.15,3.9t.15,4.86q.06,2,.12,3.84t.12,2.94A1.66,1.66,0,0,0,325.17,328.76Zm-15.42-2.19a28.27,28.27,0,0,0,5.37-5.73q2.37-3.33,5.25-8.19a10.4,10.4,0,0,0,.72-3.9,3.38,3.38,0,0,0-.75-2.19,2.45,2.45,0,0,0-2-.93q-1.5,0-3.84,2a41.93,41.93,0,0,0-5.7,6.09,50.9,50.9,0,0,0-5,7.53,13.74,13.74,0,0,0-2,5.88q0,1.8,1.68,1.8A9.88,9.88,0,0,0,309.75,326.57Z" transform="translate(-174.5 -203.5)"/><path class="cls-2" d="M366.5,362.5h-192v-159h192Zm-189-3h186v-153h-186Z" transform="translate(-174.5 -203.5)"/></svg>